<svg width="102" height="101" viewBox="0 0 102 101" fill="none" xmlns="http://www.w3.org/2000/svg">
<path d="M23.4789 0.482105C23.3757 0.521763 23.1138 0.720049 22.8916 0.918338C22.3202 1.42596 21.0425 2.25084 20.5584 2.42533C20.3282 2.50465 20.1377 2.5919 20.1377 2.62362C20.1377 2.68708 18.7013 2.75053 15.7887 2.82191L13.7888 2.8695L13.4793 2.67121C13.3126 2.56017 12.892 2.16359 12.5508 1.78288C11.8127 0.981791 11.5429 0.791431 11.1143 0.791431C10.289 0.791431 9.79693 2.25084 10.2255 3.44851C10.3604 3.82129 10.3842 4.03544 10.3525 4.43995C10.2969 5.02689 10.0112 6.02626 9.89216 6.02626C9.85248 6.02626 9.77312 6.12937 9.73344 6.26421C9.68582 6.39111 9.63027 6.50216 9.6144 6.50216C9.59059 6.50216 9.36838 6.39111 9.10648 6.26421C8.81285 6.11351 8.51127 6.02626 8.31287 6.02626C7.551 6.02626 6.48755 6.83528 5.46379 8.19951C4.80509 9.07992 3.44801 11.1342 2.71788 12.3715C1.90046 13.7437 1.56714 14.2434 0.892565 15.0683C0.130695 16.0121 -0.0518368 16.3532 0.0116524 16.718C0.0672054 17.0908 0.376715 17.5191 0.6148 17.5746C0.725906 17.5984 0.932246 17.6777 1.08303 17.7412C1.79729 18.0664 2.97184 17.9157 4.01941 17.3684C5.14634 16.7815 6.2336 15.5759 6.52723 14.5924C6.73357 13.9261 6.8923 13.6564 7.29704 13.2916C7.63036 12.9902 8.66206 12.3715 8.83665 12.3715C8.87633 12.3715 8.89221 12.5619 8.88427 12.7998C8.8684 13.0457 8.90014 13.3074 8.9557 13.4185C9.01125 13.5137 9.11442 13.9896 9.19378 14.4734C9.37631 15.679 9.6144 16.7418 9.86042 17.4874C10.2017 18.5264 10.7889 19.8272 10.9001 19.8272C10.9635 19.8272 11.0112 19.9065 11.0112 20.0175C11.0112 20.2713 11.0985 20.5172 11.781 22.167C12.4714 23.8168 13.511 26.0138 13.6618 26.1328C13.7174 26.1804 13.8206 26.3945 13.884 26.6245L14.0031 27.037L13.7729 27.1322C13.4634 27.2591 12.892 27.1401 12.1222 26.7832L11.527 26.5135L11.3365 25.8076C11.2334 25.4189 11.0985 25.0144 11.0429 24.9034C10.9159 24.6496 10.3445 24.1023 9.97152 23.8881L9.69376 23.7216L9.7255 23.9516C9.76518 24.2292 9.70963 24.2451 9.36044 24.0309C9.01919 23.8247 8.90808 23.8326 9.05887 24.0468C9.24933 24.3164 9.21759 24.3482 8.90808 24.2213C8.6065 24.0944 7.86844 24.0706 7.79702 24.1816C7.77321 24.2213 7.82876 24.2847 7.924 24.3085C8.06685 24.3561 8.02717 24.3958 7.6621 24.5544C7.10657 24.8161 6.01138 25.5538 6.04313 25.6569C6.07487 25.7759 6.6304 26.0773 7.10657 26.228C7.47164 26.3469 7.51925 26.3866 7.48751 26.5373C7.44783 26.6801 7.48751 26.7197 7.68591 26.7594C7.82083 26.7832 8.01923 26.807 8.1224 26.807C8.34461 26.807 8.36048 26.8625 8.17795 27.0608C8.05891 27.1956 8.08272 27.2035 8.81284 27.2035C9.2414 27.2035 9.58265 27.2353 9.58265 27.2749C9.58265 27.3146 9.50329 27.4018 9.40012 27.4732C9.23346 27.6001 9.24933 27.608 9.79693 27.5684C10.4001 27.5287 10.7572 27.3939 11.1064 27.0687L11.3127 26.8704L12.0032 27.1956C12.3841 27.378 12.7571 27.5208 12.8206 27.5208C12.9873 27.5208 12.765 27.7587 12.273 28.1236L11.9 28.3933L11.5588 28.2426C11.3683 28.1633 10.8207 27.9967 10.3445 27.8777C9.58265 27.6794 9.43187 27.6715 8.99538 27.7429C8.73348 27.7825 8.30493 27.9015 8.04304 27.9967L7.58274 28.1712L7.80495 28.3615C7.99542 28.5202 8.01129 28.5598 7.91606 28.6233C7.85257 28.6629 7.6621 28.7819 7.49544 28.8771L7.18593 29.0675L7.48751 29.1071L7.78908 29.1468L7.55893 29.2975C7.22561 29.5196 6.96372 29.821 6.79706 30.1779C6.60659 30.5824 6.59866 30.7569 6.76532 30.6141C6.90817 30.4951 6.90817 30.4951 6.76532 30.8917C6.68596 31.1138 6.65421 31.5818 6.64628 32.4939C6.64628 33.2077 6.67008 33.7867 6.69389 33.7867C6.72564 33.7867 6.94785 33.6598 7.19387 33.5171C7.43989 33.3664 7.74146 33.2077 7.85257 33.1601C7.97161 33.1126 8.2097 32.9856 8.39223 32.8746L8.70968 32.6763V32.8746C8.70968 32.9856 8.74142 33.0729 8.77316 33.0729C8.80491 33.0729 9.01125 32.8905 9.22553 32.6684C9.44774 32.4463 9.68582 32.2321 9.77312 32.1846C9.90803 32.1132 9.91597 32.129 9.86835 32.3115C9.84454 32.4225 9.83661 32.5177 9.86835 32.5177C10.0033 32.5177 10.6778 31.8673 10.908 31.5024C11.1858 31.0741 11.3286 31.0266 11.3286 31.3755C11.3286 31.4787 11.3604 31.5659 11.3921 31.5659C11.4873 31.5659 11.8445 31.1693 12.0349 30.8521L12.2016 30.5744V30.7886C12.2016 31.0266 12.273 31.0662 12.4159 30.9234C12.5428 30.7965 12.4555 31.4549 12.3127 31.7404C12.2492 31.8594 12.2016 32.0259 12.2016 32.1211C12.2016 32.2639 12.2254 32.2718 12.3603 32.2004C12.5111 32.1211 12.519 32.129 12.4714 32.3353C12.4476 32.4542 12.392 32.6604 12.3524 32.7874C12.2492 33.1125 12.2571 33.1522 12.4397 33.1522C12.5825 33.1522 12.5984 33.2077 12.5984 33.6836C12.5984 33.985 12.646 34.3578 12.7016 34.5244L12.8047 34.8178L13.0031 34.6116C13.1063 34.5006 13.4555 34.2468 13.765 34.0485C14.0825 33.8502 14.4158 33.5964 14.5031 33.4853C14.6539 33.2791 14.6539 33.2712 14.6618 33.4457C14.6697 33.9136 15.1459 33.287 15.2014 32.7398C15.2411 32.3432 15.2808 32.2956 15.4395 32.4542C15.511 32.5256 15.5348 32.4701 15.5348 32.1766C15.5348 31.7721 15.5665 31.7404 15.7808 31.9228C15.8998 32.0418 15.9078 32.0259 15.8443 31.7007C15.749 31.1931 15.4951 30.5665 15.257 30.2572C15.1459 30.1065 14.8205 29.8447 14.5427 29.6861C14.0507 29.4006 14.0269 29.3689 14.0269 29.0754C14.0269 28.885 14.1063 28.6312 14.2332 28.4091L14.4396 28.0601L14.5824 28.2902C14.7729 28.5995 15.3443 29.0912 15.7332 29.2737C15.9078 29.353 16.2014 29.4244 16.3839 29.4244C16.6934 29.4244 16.7331 29.4482 16.9157 29.7575C17.2648 30.3762 17.7331 31.5897 18.1061 32.8746C18.3124 33.5726 18.5505 34.3578 18.6299 34.6195C19.2251 36.5152 20.3361 41.7421 20.971 45.6444C22.0186 52.0135 24.6375 57.6369 27.4945 59.6278C27.9707 59.9609 29.2326 61.6424 30.0421 63.0145C30.5976 63.9743 31.1611 65.862 31.3356 67.4166C31.6134 69.8515 31.7642 74.0791 31.5658 74.0791C31.4309 74.0791 31.4626 77.331 31.5896 77.4421C31.6531 77.4896 31.7642 77.7038 31.8436 77.9259C31.9229 78.14 32.161 78.6873 32.3753 79.1315C32.5816 79.5677 32.7562 79.9722 32.7562 80.0277C32.7562 80.0753 32.8118 80.226 32.8832 80.3688C33.0419 80.6623 33.2324 81.5347 33.2324 81.9313C33.2324 82.0899 33.28 82.2882 33.3435 82.3755C33.5974 82.7324 33.8593 86.3254 33.7165 87.5627C33.6133 88.4986 33.4229 88.9032 32.5578 89.9898C32.2086 90.426 31.4864 91.3381 30.9547 92.0123C30.423 92.6865 29.8595 93.3607 29.7087 93.5114C29.4072 93.8049 29.3595 93.908 29.5262 93.908C29.5738 93.908 29.9468 94.0666 30.3357 94.2649C31.5261 94.8598 32.2324 95.0422 33.3911 95.0501C34.4387 95.0501 34.9625 94.947 35.5101 94.6218C35.6608 94.5346 35.8434 94.4632 35.9227 94.4632C36.145 94.4632 36.2084 94.3442 36.5259 93.3924C36.883 92.3375 37.0655 91.9647 37.3116 91.8061C37.5179 91.6713 37.9941 90.7512 37.9941 90.4974C37.9941 90.4102 38.0338 90.3388 38.0734 90.3388C38.2242 90.3388 38.0972 87.0234 37.8354 84.4298C37.6608 82.6372 37.6528 82.3834 37.7957 81.6934C38.0099 80.6067 38.1528 79.6232 38.1528 79.2187C38.1528 78.8301 37.875 77.6641 37.7481 77.5372C37.7084 77.4896 37.6766 77.3945 37.6766 77.3151C37.6766 77.2358 37.6369 77.101 37.5814 77.0217C37.4703 76.8393 37.6211 75.3402 38.2322 70.5892C38.3909 69.3757 39.0337 65.7985 39.1686 65.3623C39.2242 65.1878 39.248 65.2116 39.4781 65.6399C40.121 66.8693 40.4384 68.3525 41.0098 72.81C41.1844 74.1822 41.3669 75.5305 41.4146 75.8002C41.478 76.2047 41.4622 76.4427 41.3352 77.1089C41.1289 78.1797 41.0336 78.9253 40.9701 79.9484C40.9463 80.4085 40.8828 80.9319 40.8352 81.1144C40.74 81.503 40.8035 81.6378 41.486 82.4865C41.7082 82.7562 41.8828 83.0338 41.8828 83.0893C41.8828 83.1528 41.9383 83.7238 41.9939 84.3663C42.0574 85.0167 42.1526 86.024 42.2002 86.6109C42.3986 89.0539 42.4383 89.5456 42.4859 90.2753L42.5336 91.0447L42.0891 91.9885C41.851 92.5041 41.2003 93.9238 40.6527 95.1453C40.1051 96.3588 39.4702 97.6755 39.248 98.0641L38.8432 98.778L39.1131 99C39.6527 99.4601 40.4225 99.928 40.9305 100.103C41.3431 100.245 41.6288 100.277 42.3986 100.285C43.343 100.293 43.3589 100.293 44.0256 99.9835C44.4541 99.7853 44.8906 99.6504 45.216 99.6187C45.5017 99.579 45.954 99.5315 46.2159 99.4997L46.7 99.4363L46.7953 98.651C46.8429 98.2227 46.8826 97.4692 46.8826 96.9934V96.1129L47.1603 95.8353C47.3111 95.6846 47.4381 95.526 47.4381 95.4864C47.4381 95.4467 47.4778 95.415 47.5175 95.415C47.6365 95.415 47.6127 95.0343 47.4381 94.1776C47.1286 92.6706 47.0413 91.8537 46.9619 89.4425C46.8826 86.8172 46.954 84.3504 47.1683 82.6927C47.2318 82.1693 47.3032 81.7172 47.327 81.6854C47.3429 81.6537 47.4143 80.9716 47.4778 80.1705C47.6603 77.9814 47.827 76.1333 47.8825 75.824C47.9143 75.6733 47.946 74.4598 47.9539 73.1273C47.9778 70.6288 48.1127 68.7729 48.4381 66.6234C48.6126 65.4416 49.4063 62.269 49.5809 62.0628C49.7237 61.8883 50.6681 61.5472 51.2316 61.4679C51.5252 61.4282 52.2315 61.3727 52.795 61.341C53.9299 61.2855 54.2711 61.341 56.1679 61.8962C59.1439 62.7766 60.1518 62.9669 62.2311 63.0463L63.5644 63.0939L63.7231 63.5301C63.8104 63.768 64.3659 65.1957 64.9532 66.7027C67.1436 72.2945 67.8578 74.5391 68.0642 76.4109C68.1515 77.2914 68.1118 77.6165 67.5642 79.9088C67.3261 80.9081 67.0404 82.2168 66.9214 82.8038C66.8023 83.3907 66.5563 84.4298 66.3658 85.1039C66.1754 85.7781 65.977 86.4761 65.9373 86.6585C65.8738 86.9044 65.6198 87.2375 64.8818 88.0465C62.9136 90.2119 62.112 91.0367 61.6835 91.3302L61.2391 91.6395L61.2629 92.393L61.2867 93.1545L63.7866 93.1703C65.4611 93.1862 66.342 93.2259 66.4611 93.2814C66.6991 93.4083 67.1753 93.3052 67.3896 93.0831C67.842 92.6151 67.9848 92.3296 68.5641 90.8781C68.8975 90.0136 69.2387 89.2204 69.3022 89.1173C69.3974 88.9825 69.6038 88.8714 70.0006 88.7445C70.7783 88.5145 70.8101 88.4749 70.6672 87.9752C70.5958 87.761 70.5006 87.2455 70.445 86.833L70.3498 86.0954L71.683 82.6372L73.0163 79.1711L74.0798 77.9179C74.667 77.22 75.3019 76.4823 75.4924 76.2682L75.8337 75.8875L75.7146 75.3957C75.6591 75.134 75.4289 74.3567 75.2226 73.6825C74.421 71.1523 74.3417 70.6288 74.2861 67.8845C74.2623 66.5044 74.2782 65.5526 74.3179 65.4733C74.3893 65.3544 74.429 65.3781 74.6353 65.6478C74.7702 65.8144 75.2702 66.6789 75.7464 67.5752C76.2305 68.4715 76.786 69.5026 76.9923 69.8674C77.3574 70.5257 77.3653 70.5654 77.4368 71.4934C77.5399 72.7704 77.532 77.8862 77.4368 79.6232C77.3891 80.3847 77.3018 81.3602 77.2384 81.7965C77.1669 82.2327 77.032 83.2717 76.9209 84.1125C76.8177 84.9453 76.6035 86.2382 76.4606 86.9758C76.1908 88.2924 76.1828 88.3321 75.7543 88.9587C75.5241 89.3077 75.1115 90.0612 74.8575 90.6243C74.5956 91.1874 74.0083 92.393 73.548 93.3131C73.0877 94.2332 72.7147 95.0105 72.7147 95.0501C72.7147 95.1294 73.4211 95.3594 74.4766 95.6133C75.6194 95.8909 76.6987 95.8909 77.6114 95.6133C78.3177 95.3912 78.9684 95.177 79.4208 95.0184C79.5716 94.9629 79.7462 94.9073 79.8017 94.8915C79.8573 94.8756 79.897 94.7329 79.897 94.5266C79.897 94.3363 79.9525 94.0032 80.0239 93.789C80.1668 93.3369 80.3731 92.0361 80.3731 91.5682C80.3731 91.2747 80.3969 91.235 80.6271 91.1716C80.9683 91.0605 81.2937 90.6243 81.4445 90.0612C81.5715 89.5615 81.6112 88.5938 81.5001 88.5938C81.4604 88.5938 81.3493 88.2845 81.2461 87.9117C81.0874 87.301 81.0794 87.182 81.1588 86.7458C81.3572 85.7226 82.2381 82.5182 82.6349 81.3761C82.754 81.0509 82.9206 80.5274 83.0079 80.226C83.0952 79.9167 83.2302 79.5994 83.3095 79.5122C83.4206 79.3853 84.0634 78.0607 84.1904 77.68C84.2063 77.6324 84.4761 77.1565 84.7777 76.633C85.2221 75.8557 85.365 75.6654 85.5078 75.6654C85.73 75.6654 85.8967 75.4116 85.9681 74.9912C85.9999 74.8167 86.0554 74.5946 86.103 74.5074C86.1665 74.3725 86.1189 74.1029 85.8967 73.2859C85.738 72.7069 85.611 72.1676 85.611 72.0882C85.611 72.001 85.5237 71.4934 85.4126 70.962C84.8967 68.408 84.6904 66.0047 84.7777 63.5697C84.8253 62.1183 84.984 60.3099 85.1031 59.8498C85.1666 59.5881 86.5475 56.8438 86.8808 56.3124C87.1903 55.8127 88.9759 52.5845 89.6029 51.3948C90.6663 49.3643 91.2457 47.2783 91.4917 44.6212C91.6028 43.4236 91.5393 39.0057 91.4123 38.6726C91.3647 38.5457 91.333 38.4346 91.3488 38.4188C91.3568 38.4029 91.8171 38.6012 92.3567 38.855C94.1106 39.672 94.4122 39.7671 95.4121 39.7592C96.428 39.7513 97.3327 39.553 98.1422 39.1643C98.5707 38.9581 98.8564 38.7202 99.7532 37.8001C100.356 37.1894 100.825 36.6659 100.785 36.6262C100.682 36.5231 99.7929 36.3248 99.4199 36.3248C98.785 36.3248 98.7929 36.2297 99.4675 35.6982C100.047 35.2461 100.356 35.0716 101.206 34.6909L101.523 34.5561L101.166 34.4926C100.967 34.453 100.277 34.4054 99.6342 34.3737L98.4517 34.3181L99.412 33.3584C100.237 32.5335 100.396 32.3194 100.602 31.8435C100.729 31.5421 100.825 31.2724 100.809 31.2645C100.793 31.2486 100.309 31.5421 99.7373 31.9228C98.8802 32.486 98.1104 32.9143 97.9517 32.9143C97.9279 32.9143 97.9835 32.7953 98.0707 32.6525C98.285 32.2877 98.539 31.3755 98.666 30.5665C98.7215 30.1779 98.7612 29.8527 98.7453 29.8368C98.7374 29.8289 98.412 30.0986 98.0311 30.4317C96.6343 31.6611 96.2454 31.9308 95.3328 32.2401C94.7931 32.4225 93.4202 32.597 92.5551 32.5891C91.7377 32.5811 88.714 32.2718 88.5712 32.1766C88.5156 32.1449 88.1664 31.5024 87.8014 30.7489C87.0871 29.2975 85.9761 27.3225 85.2459 26.1883L84.8015 25.4983L83.7936 25.1096C82.2857 24.5306 78.5081 23.2774 77.1669 22.9046C76.0638 22.6032 75.9368 22.5874 75.2226 22.627C73.9369 22.6905 69.9053 23.5709 66.7944 24.4592C66.1119 24.6496 65.2627 24.8717 64.9135 24.951C64.5484 25.0303 64.2627 25.1334 64.2627 25.181C64.2627 25.2762 62.9215 25.7362 62.0009 25.9662C61.1994 26.1645 59.4376 26.4738 58.39 26.6007C54.287 27.1084 48.8349 27.1084 43.5256 26.6087C42.8431 26.5452 41.9383 26.4897 41.5257 26.4897C40.8273 26.4897 40.7003 26.4659 39.5654 26.0614C36.1608 24.8717 32.907 23.2853 31.0023 21.8815C28.8992 20.3348 27.4072 17.7174 26.6057 14.164L26.4232 13.3788L26.6216 13.0933C26.7247 12.9426 27.0263 12.5857 27.2882 12.316C28.0818 11.4911 28.3278 11.618 29.4945 13.4661C30.1928 14.5765 30.8198 15.2507 31.7007 15.8455C33.0499 16.7577 34.6133 17.2098 36.3989 17.2098C38.0734 17.2018 39.1607 16.7735 39.5813 15.9328L39.74 15.6314L39.5654 15.5362C39.2401 15.3696 37.5338 13.8626 33.5101 10.1824C31.0579 7.93777 29.6294 6.85908 28.2723 6.20869C27.7406 5.95488 27.5342 5.90729 27.0184 5.87557C26.447 5.85177 26.3517 5.86763 25.8994 6.10558C25.1931 6.4625 25.0502 6.42284 24.4867 5.74866C24.1772 5.37588 24.0344 5.14586 24.0582 5.03482C24.082 4.94757 24.2249 4.39237 24.3836 3.80543C24.709 2.5919 24.7883 1.96531 24.701 1.30699C24.6058 0.545557 24.1296 0.220363 23.4789 0.482105ZM14.2094 27.5367C14.2253 27.5922 14.1221 27.8143 13.9793 28.0205C13.7253 28.3933 13.5666 28.9802 13.6618 29.2261C13.6936 29.3133 13.638 29.3768 13.4872 29.4323C13.0984 29.583 12.527 29.9875 12.3762 30.2334L12.2254 30.4713L12.1778 29.6068C12.1302 28.6392 12.0508 28.7978 12.9793 28.0364C13.5904 27.5367 14.1301 27.3146 14.2094 27.5367Z" fill="#0F172A"/>
</svg>
